<?xml version="1.0" standalone="no"?>
<!DOCTYPE svg PUBLIC "-//W3C//DTD SVG 20010904//EN"
        "http://www.w3.org/TR/2001/REC-SVG-20010904/DTD/svg10.dtd">
<svg version="1.0" xmlns="http://www.w3.org/2000/svg" viewBox="0 0 2100.000000 2100.000000"
     preserveAspectRatio="xMidYMid meet">

    <g transform="translate(0.000000,2100.000000) scale(0.100000,-0.100000)"
       fill="#000000" stroke="none">
        <path d="M3890 11297 l0 -4803 1602 -797 1602 -798 1598 1598 1598 1598 0
2400 0 2400 -1600 -1600 -1600 -1600 -1 2405 0 2405 -1600 797 -1599 798 0
-4803z"/>
        <path d="M15508 15302 l-1597 -797 0 -2405 -1 -2405 -1600 1600 -1600 1600 0
-2400 0 -2400 1598 -1598 1598 -1598 1602 798 1602 797 0 4803 c0 2642 -1
4803 -2 4802 -2 0 -722 -359 -1600 -797z"/>
    </g>
</svg>
